<svg xmlns:xlink="http://www.w3.org/1999/xlink" fill="#e27200" id="svg" version="1.1" width="400" height="400" viewBox="0 0 400 400" xmlns="http://www.w3.org/2000/svg" ><g id="svgg"><path id="path0" d="M187.900 0.282 C 188.395 0.378,189.205 0.378,189.700 0.282 C 190.195 0.187,189.790 0.109,188.800 0.109 C 187.810 0.109,187.405 0.187,187.900 0.282 M210.300 0.282 C 210.795 0.378,211.605 0.378,212.100 0.282 C 212.595 0.187,212.190 0.109,211.200 0.109 C 210.210 0.109,209.805 0.187,210.300 0.282 M131.200 11.513 C 130.210 11.870,129.673 12.221,130.006 12.292 C 130.339 12.364,131.329 12.064,132.206 11.627 C 134.120 10.672,133.671 10.621,131.200 11.513 M268.400 11.769 C 268.950 12.101,269.670 12.373,270.000 12.374 C 270.803 12.376,269.852 11.816,268.400 11.432 L 267.400 11.167 268.400 11.769 M128.000 12.800 C 127.515 13.114,127.572 13.189,128.300 13.194 C 128.795 13.197,129.200 13.020,129.200 12.800 C 129.200 12.299,128.776 12.299,128.000 12.800 M272.000 13.153 C 272.000 13.348,272.360 13.601,272.800 13.716 C 273.745 13.963,273.886 13.395,272.967 13.043 C 272.128 12.721,272.000 12.735,272.000 13.153 M124.900 13.865 C 124.081 14.195,124.333 14.743,125.200 14.516 C 125.640 14.401,126.000 14.148,126.000 13.953 C 126.000 13.572,125.688 13.547,124.900 13.865 M274.000 13.953 C 274.000 14.148,274.360 14.401,274.800 14.516 C 275.745 14.763,275.886 14.195,274.967 13.843 C 274.128 13.521,274.000 13.535,274.000 13.953 M120.012 15.984 C 119.688 16.189,119.527 16.461,119.654 16.588 C 119.969 16.903,121.200 16.401,121.200 15.957 C 121.200 15.501,120.760 15.511,120.012 15.984 M278.800 15.957 C 278.800 16.305,280.703 16.996,281.300 16.866 C 281.465 16.830,281.600 16.980,281.600 17.200 C 281.600 17.420,281.735 17.565,281.900 17.521 C 282.065 17.478,283.704 18.209,285.541 19.147 C 287.379 20.084,288.956 20.777,289.045 20.688 C 289.135 20.598,288.486 20.200,287.604 19.802 C 286.722 19.404,286.000 18.947,286.000 18.787 C 286.000 18.526,279.600 15.600,279.031 15.600 C 278.904 15.600,278.800 15.760,278.800 15.957 M116.414 17.438 C 115.212 17.984,114.132 18.580,114.014 18.763 C 113.896 18.946,112.720 19.651,111.400 20.329 C 110.080 21.007,109.133 21.570,109.295 21.581 C 109.762 21.611,117.385 17.833,117.534 17.498 C 117.608 17.331,117.833 17.297,118.034 17.421 C 118.235 17.545,118.400 17.446,118.400 17.200 C 118.400 16.954,118.580 16.864,118.800 17.000 C 119.020 17.136,119.200 17.057,119.200 16.824 C 119.200 16.240,118.917 16.302,116.414 17.438 M105.900 23.025 C 104.415 23.787,103.200 24.501,103.200 24.611 C 103.200 24.720,104.460 24.176,106.000 23.400 C 107.540 22.624,108.800 21.902,108.800 21.795 C 108.800 21.527,108.912 21.479,105.900 23.025 M292.800 22.587 C 292.800 22.697,293.700 23.243,294.800 23.800 C 295.900 24.357,296.800 24.723,296.800 24.613 C 296.800 24.503,295.900 23.957,294.800 23.400 C 293.700 22.843,292.800 22.477,292.800 22.587 M301.342 27.318 C 302.190 27.803,305.655 30.025,309.042 32.255 C 312.429 34.486,315.200 36.170,315.200 35.997 C 315.200 35.436,300.983 26.378,300.165 26.418 C 299.964 26.427,300.494 26.832,301.342 27.318 M94.000 29.716 C 87.736 33.683,84.306 36.039,84.504 36.238 C 84.596 36.329,87.264 34.677,90.435 32.567 C 93.606 30.457,96.875 28.383,97.700 27.957 C 99.123 27.224,99.564 26.798,98.900 26.801 C 98.735 26.802,96.530 28.114,94.000 29.716 M82.584 37.382 C 81.933 37.902,81.490 38.418,81.600 38.528 C 81.710 38.638,82.333 38.302,82.984 37.782 C 83.636 37.261,84.079 36.745,83.969 36.635 C 83.859 36.525,83.236 36.861,82.584 37.382 M317.200 37.502 C 317.200 37.722,317.470 38.126,317.800 38.400 C 318.135 38.678,318.400 38.721,318.400 38.498 C 318.400 38.278,318.130 37.874,317.800 37.600 C 317.465 37.322,317.200 37.279,317.200 37.502 M318.800 38.675 C 318.800 38.910,320.545 40.414,322.677 42.017 C 324.809 43.619,327.825 46.026,329.379 47.365 C 333.139 50.604,333.837 51.139,333.431 50.464 C 333.005 49.756,323.705 42.047,321.515 40.586 C 320.572 39.957,319.575 39.173,319.300 38.844 C 319.025 38.516,318.800 38.440,318.800 38.675 M76.521 42.059 C 71.972 45.500,66.828 49.983,62.404 54.360 C 57.637 59.076,58.451 58.669,63.600 53.762 C 68.354 49.231,70.003 47.797,74.800 44.019 C 79.483 40.332,79.871 40.000,79.501 40.000 C 79.359 40.000,78.018 40.926,76.521 42.059 M336.000 53.273 C 337.210 54.454,339.190 56.210,340.400 57.175 C 341.676 58.193,340.937 57.349,338.640 55.165 C 336.463 53.094,334.483 51.338,334.240 51.263 C 333.998 51.188,334.790 52.092,336.000 53.273 M54.400 62.200 C 52.553 64.056,51.139 65.673,51.258 65.791 C 51.376 65.910,52.949 64.453,54.753 62.553 C 56.557 60.653,57.971 59.037,57.895 58.962 C 57.820 58.886,56.247 60.344,54.400 62.200 M345.173 62.306 C 348.179 65.706,348.800 66.290,348.800 65.714 C 348.800 65.531,347.327 63.945,345.526 62.191 L 342.252 59.000 345.173 62.306 M48.290 68.900 C 45.041 72.630,40.915 77.833,40.377 78.879 C 39.700 80.193,40.204 79.627,44.855 73.854 C 47.135 71.023,49.428 68.188,49.951 67.554 C 51.768 65.350,50.455 66.414,48.290 68.900 M349.679 67.000 C 350.001 67.440,351.330 69.064,352.633 70.608 C 353.935 72.153,356.060 74.808,357.355 76.508 C 358.651 78.209,359.864 79.600,360.052 79.600 C 360.239 79.600,360.139 79.285,359.830 78.900 C 359.521 78.515,357.825 76.385,356.060 74.167 C 353.245 70.629,348.117 64.869,349.679 67.000 M188.713 78.295 C 189.876 78.376,191.676 78.376,192.713 78.293 C 193.751 78.211,192.800 78.145,190.600 78.146 C 188.400 78.147,187.551 78.214,188.713 78.295 M182.500 79.288 C 182.005 79.527,181.600 79.885,181.600 80.085 C 181.600 80.284,181.440 80.349,181.245 80.228 C 180.829 79.971,179.777 81.110,180.117 81.450 C 180.327 81.660,180.663 81.445,182.114 80.174 C 182.381 79.940,182.960 79.540,183.400 79.286 C 184.407 78.705,183.707 78.706,182.500 79.288 M219.200 79.902 C 219.200 80.122,219.470 80.526,219.800 80.800 C 220.135 81.078,220.400 81.121,220.400 80.898 C 220.400 80.678,220.130 80.274,219.800 80.000 C 219.465 79.722,219.200 79.679,219.200 79.902 M360.400 80.600 C 360.674 80.930,361.078 81.200,361.298 81.200 C 361.521 81.200,361.478 80.935,361.200 80.600 C 360.926 80.270,360.522 80.000,360.302 80.000 C 360.079 80.000,360.122 80.265,360.400 80.600 M35.904 84.613 C 32.636 89.292,26.797 98.539,26.824 98.992 C 26.836 99.216,27.061 99.061,27.324 98.646 C 32.557 90.365,34.045 88.107,36.231 85.129 C 37.655 83.188,38.638 81.600,38.414 81.600 C 38.190 81.600,37.061 82.956,35.904 84.613 M362.063 82.800 C 362.551 83.460,363.109 84.000,363.302 84.000 C 363.496 84.000,363.270 83.460,362.800 82.800 C 362.330 82.140,361.772 81.600,361.561 81.600 C 361.349 81.600,361.575 82.140,362.063 82.800 M178.505 82.490 C 177.830 83.333,176.399 86.331,176.409 86.884 C 176.414 87.168,176.784 86.593,177.231 85.607 C 177.678 84.621,178.333 83.495,178.686 83.105 C 179.039 82.714,179.235 82.302,179.121 82.188 C 179.007 82.074,178.730 82.210,178.505 82.490 M221.604 82.100 C 221.606 82.155,222.064 83.100,222.621 84.200 C 223.179 85.300,223.515 85.750,223.367 85.200 C 222.935 83.591,221.570 81.192,221.604 82.100 M363.600 84.590 C 363.600 84.694,364.923 86.719,366.541 89.090 C 368.158 91.460,370.252 94.711,371.194 96.313 C 372.136 97.915,372.996 99.138,373.105 99.029 C 373.330 98.804,370.726 94.513,366.716 88.500 C 364.260 84.817,363.600 83.989,363.600 84.590 M175.775 101.200 C 175.775 107.030,175.831 109.415,175.899 106.500 C 175.967 103.585,175.967 98.815,175.899 95.900 C 175.831 92.985,175.775 95.370,175.775 101.200 M23.000 106.000 C 22.224 107.540,21.680 108.800,21.790 108.800 C 21.900 108.800,22.624 107.540,23.400 106.000 C 24.176 104.460,24.720 103.200,24.610 103.200 C 24.500 103.200,23.776 104.460,23.000 106.000 M378.875 110.500 C 380.899 114.515,382.520 117.935,382.477 118.100 C 382.435 118.265,382.591 118.400,382.824 118.400 C 383.057 118.400,383.136 118.580,383.000 118.800 C 382.864 119.020,382.943 119.200,383.176 119.200 C 383.848 119.200,380.949 112.199,380.036 111.615 C 379.851 111.497,378.776 109.555,377.646 107.300 C 376.517 105.045,375.503 103.200,375.394 103.200 C 375.285 103.200,376.852 106.485,378.875 110.500 M19.999 112.001 C 19.485 113.101,18.938 114.000,18.784 114.000 C 18.546 114.000,16.400 118.525,16.400 119.026 C 16.400 119.122,16.591 119.200,16.824 119.200 C 17.057 119.200,17.136 119.020,17.000 118.800 C 16.864 118.580,16.954 118.400,17.200 118.400 C 17.446 118.400,17.545 118.235,17.421 118.034 C 17.297 117.833,17.331 117.608,17.498 117.534 C 17.884 117.363,21.292 110.358,21.088 110.155 C 21.004 110.071,20.514 110.902,19.999 112.001 M224.981 131.000 C 224.981 139.140,225.034 142.413,225.100 138.274 C 225.165 134.134,225.165 127.474,225.099 123.474 C 225.034 119.473,224.981 122.860,224.981 131.000 M15.843 120.233 C 15.521 121.072,15.535 121.200,15.953 121.200 C 16.148 121.200,16.401 120.840,16.516 120.400 C 16.763 119.455,16.195 119.314,15.843 120.233 M383.618 120.434 C 383.864 120.893,384.144 121.189,384.242 121.092 C 384.522 120.812,383.954 119.600,383.543 119.600 C 383.339 119.600,383.373 119.975,383.618 120.434 M13.843 125.033 C 13.521 125.872,13.535 126.000,13.953 126.000 C 14.148 126.000,14.401 125.640,14.516 125.200 C 14.763 124.255,14.195 124.114,13.843 125.033 M385.484 125.200 C 385.599 125.640,385.852 126.000,386.047 126.000 C 386.465 126.000,386.479 125.872,386.157 125.033 C 385.805 124.114,385.237 124.255,385.484 125.200 M11.484 131.371 C 10.597 133.929,10.641 134.183,11.627 132.206 C 12.064 131.329,12.365 130.339,12.295 130.006 C 12.224 129.673,11.859 130.287,11.484 131.371 M387.662 130.000 C 387.661 130.330,388.006 131.320,388.429 132.200 C 388.852 133.080,389.086 133.350,388.950 132.800 C 388.575 131.295,387.666 129.316,387.662 130.000 M176.158 145.800 C 176.158 148.880,176.221 150.087,176.297 148.482 C 176.373 146.878,176.373 144.358,176.296 142.882 C 176.219 141.407,176.157 142.720,176.158 145.800 M227.256 157.571 C 227.588 158.105,228.295 158.802,228.829 159.120 C 229.789 159.692,229.791 159.690,229.000 158.949 C 228.560 158.537,227.852 157.840,227.427 157.400 C 226.659 156.605,226.658 156.606,227.256 157.571 M166.000 160.400 C 165.577 160.673,166.138 160.790,167.900 160.794 C 169.304 160.797,170.400 160.625,170.400 160.400 C 170.400 159.888,166.793 159.888,166.000 160.400 M231.600 160.400 C 231.600 160.638,232.935 160.781,234.900 160.753 C 237.272 160.719,237.863 160.620,237.000 160.400 C 235.201 159.942,231.600 159.942,231.600 160.400 M155.400 160.800 C 155.249 161.044,155.863 161.200,156.976 161.200 C 157.979 161.200,158.800 161.020,158.800 160.800 C 158.800 160.580,158.091 160.400,157.224 160.400 C 156.357 160.400,155.536 160.580,155.400 160.800 M244.800 160.800 C 244.800 161.038,246.140 161.184,248.100 161.160 C 250.366 161.133,251.087 161.020,250.400 160.800 C 248.935 160.331,244.800 160.331,244.800 160.800 M141.600 161.200 C 141.600 161.420,141.960 161.600,142.400 161.600 C 142.840 161.600,143.200 161.420,143.200 161.200 C 143.200 160.980,142.840 160.800,142.400 160.800 C 141.960 160.800,141.600 160.980,141.600 161.200 M255.600 161.200 C 255.600 161.420,255.960 161.600,256.400 161.600 C 256.840 161.600,257.200 161.420,257.200 161.200 C 257.200 160.980,256.840 160.800,256.400 160.800 C 255.960 160.800,255.600 160.980,255.600 161.200 M257.797 161.605 C 257.684 161.787,258.218 162.142,258.983 162.394 C 259.748 162.647,260.830 163.395,261.387 164.057 C 261.944 164.720,262.400 165.074,262.400 164.844 C 262.400 163.604,258.331 160.741,257.797 161.605 M137.450 163.214 C 136.872 163.900,136.414 164.763,136.432 165.131 C 136.457 165.678,136.503 165.691,136.681 165.200 C 136.802 164.870,137.359 164.107,137.921 163.504 C 138.482 162.901,138.842 162.309,138.721 162.187 C 138.599 162.066,138.027 162.528,137.450 163.214 M262.493 166.800 C 262.493 167.570,262.575 167.885,262.676 167.500 C 262.776 167.115,262.776 166.485,262.676 166.100 C 262.575 165.715,262.493 166.030,262.493 166.800 M261.382 170.440 C 260.973 171.346,260.180 172.579,259.619 173.180 C 258.194 174.707,255.902 177.592,255.076 178.900 C 254.347 180.054,254.743 180.432,255.600 179.400 C 255.874 179.070,255.946 178.800,255.760 178.800 C 255.574 178.800,255.822 178.520,256.311 178.177 C 256.800 177.835,257.200 177.395,257.200 177.200 C 257.200 177.004,257.828 176.160,258.596 175.322 C 260.007 173.784,262.626 169.293,262.301 168.968 C 262.204 168.871,261.791 169.533,261.382 170.440 M136.804 170.224 C 136.810 170.880,139.072 174.578,140.259 175.872 C 140.886 176.557,141.593 177.440,141.829 177.835 C 142.296 178.618,143.200 179.073,143.200 178.525 C 143.200 178.336,142.361 177.286,141.337 176.191 C 140.312 175.096,138.872 173.221,138.137 172.024 C 137.401 170.826,136.802 170.016,136.804 170.224 M0.893 178.400 C 0.893 179.170,0.975 179.485,1.076 179.100 C 1.176 178.715,1.176 178.085,1.076 177.700 C 0.975 177.315,0.893 177.630,0.893 178.400 M143.200 179.489 C 143.200 179.992,144.343 180.990,144.612 180.721 C 144.718 180.615,144.444 180.202,144.002 179.802 C 143.561 179.403,143.200 179.262,143.200 179.489 M146.400 183.488 C 149.032 187.235,158.200 199.134,158.344 198.990 C 158.549 198.784,146.898 183.307,146.231 182.898 C 145.994 182.753,146.070 183.019,146.400 183.488 M245.599 191.834 C 242.923 195.482,240.814 198.547,240.911 198.644 C 241.009 198.742,243.139 195.993,245.644 192.536 C 250.557 185.758,250.937 185.200,250.652 185.200 C 250.549 185.200,248.275 188.185,245.599 191.834 M0.109 188.800 C 0.109 189.790,0.187 190.195,0.282 189.700 C 0.378 189.205,0.378 188.395,0.282 187.900 C 0.187 187.405,0.109 187.810,0.109 188.800 M399.709 188.800 C 399.709 189.790,399.787 190.195,399.882 189.700 C 399.978 189.205,399.978 188.395,399.882 187.900 C 399.787 187.405,399.709 187.810,399.709 188.800 M160.000 201.800 C 160.274 202.130,160.678 202.400,160.898 202.400 C 161.121 202.400,161.078 202.135,160.800 201.800 C 160.526 201.470,160.122 201.200,159.902 201.200 C 159.679 201.200,159.722 201.465,160.000 201.800 M161.200 203.400 C 161.474 203.730,161.878 204.000,162.098 204.000 C 162.321 204.000,162.278 203.735,162.000 203.400 C 161.726 203.070,161.322 202.800,161.102 202.800 C 160.879 202.800,160.922 203.065,161.200 203.400 M231.726 210.700 C 228.898 214.605,226.269 218.295,225.883 218.900 C 224.698 220.758,225.445 220.120,227.053 217.900 C 227.889 216.745,228.670 215.710,228.787 215.600 C 228.904 215.490,229.625 214.500,230.388 213.400 C 231.152 212.300,231.915 211.220,232.085 211.000 C 232.571 210.370,235.293 206.751,236.523 205.100 C 237.138 204.275,237.467 203.600,237.254 203.600 C 237.042 203.600,234.554 206.795,231.726 210.700 M162.400 204.598 C 162.400 204.802,172.988 219.086,173.669 219.800 C 175.031 221.229,172.208 217.090,167.842 211.256 C 163.085 204.899,162.400 204.062,162.400 204.598 M0.109 211.200 C 0.109 212.190,0.187 212.595,0.282 212.100 C 0.378 211.605,0.378 210.795,0.282 210.300 C 0.187 209.805,0.109 210.210,0.109 211.200 M399.709 211.200 C 399.709 212.190,399.787 212.595,399.882 212.100 C 399.978 211.605,399.978 210.795,399.882 210.300 C 399.787 209.805,399.709 210.210,399.709 211.200 M0.893 221.600 C 0.893 222.370,0.975 222.685,1.076 222.300 C 1.176 221.915,1.176 221.285,1.076 220.900 C 0.975 220.515,0.893 220.830,0.893 221.600 M224.000 221.600 C 223.530 222.260,223.236 222.800,223.346 222.800 C 223.456 222.800,223.930 222.260,224.400 221.600 C 224.870 220.940,225.164 220.400,225.054 220.400 C 224.944 220.400,224.470 220.940,224.000 221.600 M220.585 226.300 C 219.975 227.125,219.171 228.070,218.798 228.400 C 217.483 229.565,213.126 235.659,213.416 235.928 C 213.577 236.077,213.797 235.955,213.903 235.655 C 214.010 235.355,214.435 234.820,214.848 234.466 C 215.262 234.112,215.600 233.607,215.600 233.344 C 215.600 233.082,215.743 232.807,215.919 232.733 C 216.094 232.660,217.383 231.070,218.784 229.200 C 220.184 227.330,221.503 225.575,221.714 225.300 C 221.925 225.025,222.007 224.800,221.896 224.800 C 221.786 224.800,221.196 225.475,220.585 226.300 M177.853 225.600 C 178.550 226.619,182.151 231.374,182.588 231.851 C 182.814 232.099,183.270 232.710,183.600 233.208 C 183.930 233.706,184.560 234.540,185.000 235.061 C 186.041 236.293,187.065 237.602,187.770 238.599 C 188.081 239.039,188.459 239.274,188.611 239.122 C 188.764 238.970,187.824 237.530,186.523 235.923 C 185.222 234.315,183.334 231.920,182.329 230.600 C 180.651 228.398,176.906 224.214,177.853 225.600 M211.254 238.121 C 210.543 239.154,210.144 240.000,210.367 240.000 C 210.590 240.000,210.988 239.595,211.251 239.100 C 211.515 238.605,211.996 238.004,212.320 237.765 C 212.645 237.526,212.828 237.085,212.729 236.786 C 212.617 236.451,212.051 236.963,211.254 238.121 M189.437 240.600 C 189.797 241.150,190.283 241.600,190.516 241.600 C 190.749 241.600,190.517 241.150,190.000 240.600 C 189.483 240.050,188.998 239.600,188.921 239.600 C 188.844 239.600,189.076 240.050,189.437 240.600 M207.232 243.304 L 204.663 246.200 206.961 244.000 C 208.902 242.142,210.341 240.389,209.914 240.404 C 209.851 240.406,208.644 241.711,207.232 243.304 M98.206 241.190 C 98.051 241.441,103.277 241.620,112.782 241.690 C 124.429 241.777,127.600 241.693,127.600 241.300 C 127.600 240.669,98.595 240.561,98.206 241.190 M274.000 241.200 C 274.000 241.459,279.000 241.600,288.200 241.600 C 298.752 241.600,302.400 241.720,302.400 242.067 C 302.400 242.323,302.494 242.439,302.609 242.324 C 302.725 242.209,302.705 241.819,302.567 241.457 C 302.268 240.678,274.000 240.423,274.000 241.200 M96.455 245.055 C 95.765 246.748,95.266 248.199,95.346 248.279 C 95.426 248.359,96.056 247.039,96.745 245.345 C 97.435 243.652,97.934 242.201,97.854 242.121 C 97.774 242.041,97.144 243.361,96.455 245.055 M192.600 244.000 C 193.683 245.100,194.660 246.000,194.770 246.000 C 194.880 246.000,194.083 245.100,193.000 244.000 C 191.917 242.900,190.940 242.000,190.830 242.000 C 190.720 242.000,191.517 242.900,192.600 244.000 M302.950 243.200 C 303.301 244.499,304.509 247.224,304.665 247.068 C 304.756 246.978,304.370 245.935,303.809 244.752 C 303.247 243.568,302.861 242.870,302.950 243.200 M276.098 247.300 C 276.200 247.575,277.044 250.095,277.974 252.900 C 278.905 255.705,279.831 258.000,280.033 258.000 C 280.495 258.000,280.516 257.312,280.060 257.133 C 279.873 257.060,278.958 254.705,278.027 251.900 C 277.096 249.095,276.239 246.800,276.124 246.800 C 276.009 246.800,275.997 247.025,276.098 247.300 M199.105 247.883 C 199.602 247.979,200.322 247.975,200.705 247.875 C 201.087 247.775,200.680 247.696,199.800 247.701 C 198.920 247.705,198.607 247.787,199.105 247.883 M122.841 254.476 C 122.159 256.525,121.614 258.382,121.630 258.601 C 121.647 258.820,122.275 257.213,123.026 255.029 C 123.777 252.845,124.322 250.988,124.237 250.904 C 124.152 250.819,123.524 252.426,122.841 254.476 M309.616 259.445 C 309.598 259.935,311.882 265.615,312.241 265.974 C 312.647 266.380,311.885 263.818,311.356 263.000 C 311.072 262.560,310.823 262.068,310.803 261.907 C 310.728 261.296,309.631 259.020,309.616 259.445 M89.474 262.274 C 88.890 263.744,88.478 265.011,88.557 265.091 C 88.636 265.170,89.181 264.035,89.768 262.568 C 90.355 261.102,90.768 259.835,90.685 259.752 C 90.602 259.669,90.057 260.804,89.474 262.274 M87.405 266.926 C 86.548 268.976,86.686 269.283,87.647 267.462 C 88.093 266.616,88.357 265.824,88.234 265.701 C 88.111 265.578,87.738 266.129,87.405 266.926 M312.406 266.700 C 312.424 267.577,313.188 268.159,313.194 267.300 C 313.197 266.805,313.020 266.400,312.800 266.400 C 312.580 266.400,312.403 266.535,312.406 266.700 M388.215 268.215 C 387.830 269.224,387.604 270.137,387.713 270.246 C 387.821 270.355,388.200 269.593,388.554 268.554 C 389.390 266.099,389.125 265.834,388.215 268.215 M11.407 268.400 C 11.882 270.040,12.376 270.754,12.375 269.800 C 12.375 269.360,12.092 268.640,11.746 268.200 C 11.135 267.423,11.126 267.429,11.407 268.400 M117.033 270.701 C 116.465 272.407,116.000 273.937,116.000 274.101 C 116.000 274.266,154.160 274.400,200.800 274.400 L 285.600 274.400 285.600 273.576 C 285.600 273.120,285.419 272.865,285.193 273.004 C 284.970 273.142,284.891 273.423,285.017 273.628 C 285.159 273.857,252.903 274.000,201.024 274.000 C 154.701 274.000,116.800 273.852,116.800 273.670 C 116.800 273.489,117.239 272.049,117.776 270.470 C 118.313 268.892,118.598 267.600,118.409 267.600 C 118.220 267.600,117.601 268.996,117.033 270.701 M313.206 268.700 C 313.224 269.577,313.988 270.159,313.994 269.300 C 313.997 268.805,313.820 268.400,313.600 268.400 C 313.380 268.400,313.203 268.535,313.206 268.700 M85.618 270.766 C 85.373 271.225,85.339 271.600,85.543 271.600 C 85.954 271.600,86.522 270.388,86.242 270.108 C 86.144 270.011,85.864 270.307,85.618 270.766 M84.284 273.600 C 84.169 274.040,84.238 274.400,84.437 274.400 C 84.637 274.400,84.800 274.325,84.800 274.233 C 84.800 274.141,84.909 273.781,85.043 273.433 C 85.176 273.085,85.107 272.800,84.889 272.800 C 84.672 272.800,84.399 273.160,84.284 273.600 M13.757 274.633 C 13.891 274.981,14.000 275.341,14.000 275.433 C 14.000 275.525,14.163 275.600,14.363 275.600 C 14.562 275.600,14.631 275.240,14.516 274.800 C 14.401 274.360,14.128 274.000,13.911 274.000 C 13.693 274.000,13.624 274.285,13.757 274.633 M385.484 274.800 C 385.369 275.240,385.438 275.600,385.637 275.600 C 385.837 275.600,386.000 275.525,386.000 275.433 C 386.000 275.341,386.109 274.981,386.243 274.633 C 386.376 274.285,386.307 274.000,386.089 274.000 C 385.872 274.000,385.599 274.360,385.484 274.800 M82.284 278.400 C 82.169 278.840,82.238 279.200,82.437 279.200 C 82.637 279.200,82.800 279.125,82.800 279.033 C 82.800 278.941,82.909 278.581,83.043 278.233 C 83.176 277.885,83.107 277.600,82.889 277.600 C 82.672 277.600,82.399 277.960,82.284 278.400 M15.600 279.031 C 15.600 279.590,18.524 286.000,18.779 286.000 C 18.935 286.000,19.485 286.899,19.999 287.999 C 20.514 289.098,21.006 289.927,21.093 289.841 C 21.179 289.754,20.393 288.000,19.345 285.942 C 18.298 283.884,17.423 282.110,17.403 282.000 C 17.092 280.373,15.600 277.915,15.600 279.031 M383.445 279.912 C 383.108 280.565,382.945 281.211,383.083 281.349 C 383.221 281.487,383.123 281.600,382.867 281.600 C 382.610 281.600,382.435 281.735,382.478 281.900 C 382.522 282.065,381.700 283.884,380.654 285.942 C 379.607 288.000,378.851 289.785,378.975 289.908 C 379.099 290.032,379.200 289.936,379.200 289.695 C 379.200 289.454,379.451 289.006,379.757 288.700 C 380.427 288.030,381.919 285.127,383.378 281.657 C 384.482 279.029,384.529 277.816,383.445 279.912 M80.979 281.689 C 80.551 282.838,80.140 283.918,80.067 284.089 C 79.993 284.260,80.104 284.400,80.313 284.400 C 80.669 284.400,82.400 280.706,82.400 279.947 C 82.400 278.948,81.665 279.850,80.979 281.689 M318.400 281.829 C 318.400 281.954,318.670 282.327,319.000 282.657 C 319.651 283.308,319.733 283.211,319.357 282.233 C 319.129 281.638,318.400 281.330,318.400 281.829 M79.443 285.433 C 79.067 286.411,79.149 286.508,79.800 285.857 C 80.480 285.177,80.567 284.800,80.043 284.800 C 79.846 284.800,79.576 285.085,79.443 285.433 M320.629 286.400 C 320.776 286.950,321.064 287.670,321.267 288.000 C 321.525 288.417,321.557 288.295,321.371 287.600 C 321.224 287.050,320.936 286.330,320.733 286.000 C 320.475 285.583,320.443 285.705,320.629 286.400 M78.465 287.817 C 77.795 289.288,77.923 289.602,78.647 288.265 C 78.986 287.640,79.188 287.054,79.096 286.963 C 79.005 286.871,78.721 287.256,78.465 287.817 M23.000 294.000 C 23.557 295.100,24.103 296.000,24.213 296.000 C 24.323 296.000,23.957 295.100,23.400 294.000 C 22.843 292.900,22.297 292.000,22.187 292.000 C 22.077 292.000,22.443 292.900,23.000 294.000 M376.600 294.000 C 376.043 295.100,375.677 296.000,375.787 296.000 C 375.897 296.000,376.443 295.100,377.000 294.000 C 377.557 292.900,377.923 292.000,377.813 292.000 C 377.703 292.000,377.157 292.900,376.600 294.000 M322.901 295.800 C 322.905 296.680,322.987 296.993,323.083 296.495 C 323.179 295.998,323.175 295.278,323.075 294.895 C 322.975 294.513,322.896 294.920,322.901 295.800 M26.418 300.219 C 26.382 301.076,35.886 315.848,36.243 315.490 C 36.340 315.393,34.570 312.518,32.310 309.102 C 30.049 305.686,27.803 302.196,27.318 301.346 C 26.832 300.496,26.427 299.989,26.418 300.219 M371.793 302.710 C 370.935 304.190,368.735 307.630,366.905 310.356 C 365.075 313.081,363.658 315.392,363.757 315.490 C 363.973 315.706,368.651 308.764,371.581 303.880 C 372.743 301.944,373.617 300.284,373.524 300.190 C 373.430 300.097,372.652 301.231,371.793 302.710 M78.812 303.316 C 78.788 303.955,80.429 306.800,80.822 306.800 C 81.225 306.800,80.580 305.218,80.006 304.800 C 79.855 304.690,79.527 304.240,79.278 303.800 C 79.028 303.360,78.819 303.142,78.812 303.316 M318.900 307.363 C 317.963 308.352,317.780 308.800,318.314 308.800 C 318.486 308.800,318.946 308.260,319.336 307.600 C 320.189 306.157,320.093 306.105,318.900 307.363 M82.043 309.000 C 83.184 310.589,84.000 311.246,84.000 310.577 C 84.000 310.157,81.467 307.200,81.108 307.200 C 80.911 307.200,81.332 308.010,82.043 309.000 M314.368 312.116 C 312.473 313.919,310.188 315.600,308.272 316.600 C 306.587 317.480,305.207 318.335,305.204 318.500 C 305.183 320.014,315.162 313.262,317.222 310.368 C 318.595 308.440,317.578 309.063,314.368 312.116 M86.000 313.200 C 86.000 313.420,86.135 313.600,86.300 313.601 C 86.465 313.601,87.188 314.104,87.906 314.718 C 89.640 316.201,91.600 317.339,91.600 316.864 C 91.600 316.655,90.714 315.915,89.631 315.220 C 88.548 314.525,87.446 313.696,87.182 313.378 C 86.628 312.711,86.000 312.616,86.000 313.200 M362.063 317.200 C 361.575 317.860,361.349 318.400,361.561 318.400 C 361.772 318.400,362.330 317.860,362.800 317.200 C 363.270 316.540,363.496 316.000,363.302 316.000 C 363.109 316.000,362.551 316.540,362.063 317.200 M37.600 317.800 C 37.874 318.130,38.278 318.400,38.498 318.400 C 38.721 318.400,38.678 318.135,38.400 317.800 C 38.126 317.470,37.722 317.200,37.502 317.200 C 37.279 317.200,37.322 317.465,37.600 317.800 M92.800 317.596 C 92.800 317.939,94.829 319.200,95.380 319.200 C 96.071 319.200,95.405 318.455,94.200 317.881 C 93.430 317.513,92.800 317.385,92.800 317.596 M303.613 319.091 C 303.089 319.682,303.103 319.723,303.746 319.476 C 304.142 319.324,304.541 319.200,304.633 319.200 C 304.725 319.200,304.800 319.020,304.800 318.800 C 304.800 318.212,304.281 318.339,303.613 319.091 M38.844 319.300 C 39.173 319.575,39.957 320.572,40.586 321.515 C 44.779 327.801,64.976 349.557,65.828 348.705 C 65.944 348.590,64.462 347.079,62.536 345.348 C 60.610 343.616,58.666 341.770,58.217 341.245 C 57.768 340.719,55.845 338.649,53.944 336.645 C 49.429 331.884,45.692 327.504,42.043 322.696 C 40.416 320.553,38.897 318.800,38.666 318.800 C 38.436 318.800,38.516 319.025,38.844 319.300 M360.400 319.400 C 360.122 319.735,360.079 320.000,360.302 320.000 C 360.522 320.000,360.926 319.730,361.200 319.400 C 361.478 319.065,361.521 318.800,361.298 318.800 C 361.078 318.800,360.674 319.070,360.400 319.400 M357.835 322.838 C 356.794 324.179,356.023 325.356,356.121 325.455 C 356.220 325.553,357.226 324.456,358.357 323.017 C 359.488 321.578,360.259 320.400,360.071 320.400 C 359.883 320.400,358.876 321.497,357.835 322.838 M291.105 321.883 C 291.602 321.979,292.322 321.975,292.705 321.875 C 293.087 321.775,292.680 321.696,291.800 321.701 C 290.920 321.705,290.607 321.787,291.105 321.883 M140.900 322.300 C 158.445 322.358,187.155 322.358,204.700 322.300 C 222.245 322.242,207.890 322.195,172.800 322.195 C 137.710 322.195,123.355 322.242,140.900 322.300 M354.185 327.500 C 352.526 329.547,351.924 330.400,352.140 330.400 C 352.457 330.400,355.711 326.378,355.536 326.203 C 355.445 326.112,354.837 326.695,354.185 327.500 M348.595 333.901 C 347.058 335.576,345.001 337.858,344.025 338.973 L 342.249 341.000 344.158 339.200 C 346.712 336.792,351.748 331.215,351.549 331.016 C 351.462 330.928,350.132 332.227,348.595 333.901 M339.000 343.885 C 334.136 348.334,330.788 351.600,331.090 351.600 C 331.452 351.600,341.145 342.447,340.800 342.431 C 340.690 342.426,339.880 343.080,339.000 343.885 M68.200 350.983 C 69.300 352.011,72.000 354.294,74.200 356.056 C 76.400 357.818,78.515 359.515,78.900 359.826 C 79.285 360.137,79.600 360.243,79.600 360.061 C 79.600 359.879,78.115 358.588,76.300 357.193 C 74.485 355.798,71.830 353.650,70.400 352.419 C 66.975 349.472,65.676 348.623,68.200 350.983 M328.193 353.641 C 325.713 355.682,325.794 355.602,326.233 355.592 C 326.624 355.583,330.743 352.041,330.393 352.015 C 330.279 352.007,329.289 352.738,328.193 353.641 M322.875 357.839 C 321.514 358.851,320.400 359.844,320.400 360.046 C 320.400 360.248,321.570 359.494,323.000 358.370 C 325.315 356.551,325.890 356.000,325.475 356.000 C 325.406 356.000,324.236 356.828,322.875 357.839 M80.000 360.302 C 80.000 360.522,80.270 360.926,80.600 361.200 C 80.935 361.478,81.200 361.521,81.200 361.298 C 81.200 361.078,80.930 360.674,80.600 360.400 C 80.265 360.122,80.000 360.079,80.000 360.302 M319.200 360.600 C 318.917 360.941,318.776 361.309,318.886 361.419 C 318.996 361.529,319.317 361.341,319.600 361.000 C 319.883 360.659,320.024 360.291,319.914 360.181 C 319.804 360.071,319.483 360.259,319.200 360.600 M81.600 361.561 C 81.600 361.772,82.140 362.330,82.800 362.800 C 83.460 363.270,84.000 363.496,84.000 363.302 C 84.000 363.109,83.460 362.551,82.800 362.063 C 82.140 361.575,81.600 361.349,81.600 361.561 M317.600 361.800 C 317.317 362.141,317.176 362.509,317.286 362.619 C 317.396 362.729,317.717 362.541,318.000 362.200 C 318.283 361.859,318.424 361.491,318.314 361.381 C 318.204 361.271,317.883 361.459,317.600 361.800 M84.400 363.791 C 84.400 364.316,98.731 373.403,99.052 373.081 C 99.148 372.985,97.915 372.136,96.313 371.194 C 94.711 370.252,91.460 368.158,89.090 366.541 C 84.904 363.685,84.400 363.389,84.400 363.791 M311.000 366.455 C 308.800 367.991,305.435 370.177,303.521 371.312 C 301.608 372.447,300.115 373.448,300.203 373.537 C 300.520 373.853,315.600 364.330,315.600 363.813 C 315.600 363.339,314.826 363.783,311.000 366.455 M104.000 375.794 C 104.000 375.903,105.665 376.826,107.700 377.846 C 109.735 378.866,111.497 379.851,111.615 380.036 C 112.199 380.949,119.200 383.848,119.200 383.176 C 119.200 382.943,119.020 382.864,118.800 383.000 C 118.580 383.136,118.400 383.057,118.400 382.824 C 118.400 382.591,118.265 382.435,118.100 382.478 C 117.935 382.520,114.695 380.989,110.900 379.075 C 107.105 377.161,104.000 375.685,104.000 375.794 M294.300 376.427 C 293.475 376.863,292.800 377.308,292.800 377.418 C 292.800 377.527,293.520 377.249,294.400 376.800 C 295.280 376.351,296.000 375.897,296.000 375.792 C 296.000 375.530,295.997 375.531,294.300 376.427 M285.705 380.751 C 283.672 381.810,281.917 382.584,281.805 382.471 C 281.692 382.359,281.600 382.487,281.600 382.757 C 281.600 383.027,281.420 383.136,281.200 383.000 C 280.980 382.864,280.800 382.954,280.800 383.200 C 280.800 383.446,280.647 383.552,280.459 383.436 C 280.271 383.320,279.776 383.499,279.359 383.834 C 278.638 384.411,278.650 384.428,279.600 384.169 C 280.983 383.793,288.118 380.450,288.384 380.054 C 288.503 379.877,288.960 379.527,289.400 379.278 C 289.840 379.028,290.020 378.825,289.800 378.825 C 289.580 378.825,287.737 379.692,285.705 380.751 M274.571 385.791 C 274.147 386.112,273.980 386.378,274.200 386.381 C 274.794 386.391,275.810 385.677,275.559 385.426 C 275.440 385.306,274.995 385.471,274.571 385.791 M129.600 387.763 C 129.600 387.992,134.507 389.626,134.679 389.454 C 134.818 389.316,130.358 387.600,129.859 387.600 C 129.717 387.600,129.600 387.673,129.600 387.763 M268.600 388.214 C 267.600 388.696,267.566 388.751,268.400 388.548 C 269.533 388.271,270.807 387.621,270.200 387.630 C 269.980 387.633,269.260 387.896,268.600 388.214 M187.900 399.882 C 188.395 399.978,189.205 399.978,189.700 399.882 C 190.195 399.787,189.790 399.709,188.800 399.709 C 187.810 399.709,187.405 399.787,187.900 399.882 M210.300 399.882 C 210.795 399.978,211.605 399.978,212.100 399.882 C 212.595 399.787,212.190 399.709,211.200 399.709 C 210.210 399.709,209.805 399.787,210.300 399.882 " stroke="none" fill="#e27200" fill-rule="evenodd"></path><path id="path1" d="M189.400 0.384 C 181.025 0.861,165.048 2.752,164.020 3.388 C 163.852 3.491,163.014 3.672,162.157 3.790 C 160.520 4.015,160.027 4.113,158.400 4.533 C 157.850 4.675,156.950 4.875,156.400 4.977 C 155.850 5.079,152.970 5.802,150.000 6.585 C 78.614 25.389,24.576 79.786,6.340 151.200 C 3.986 160.421,4.043 160.175,3.782 162.157 C 3.669 163.014,3.491 163.852,3.388 164.020 C 3.055 164.558,1.636 174.795,0.951 181.600 C -0.587 196.876,0.625 225.246,3.246 235.320 C 3.464 236.157,3.720 237.417,3.815 238.120 C 4.236 241.227,8.096 255.885,10.197 262.355 C 29.542 321.913,78.306 370.790,137.200 389.653 C 139.510 390.393,141.490 391.089,141.600 391.199 C 141.710 391.310,142.070 391.423,142.400 391.451 C 142.730 391.479,145.700 392.249,149.000 393.162 C 152.300 394.074,155.540 394.912,156.200 395.024 C 156.860 395.135,157.940 395.396,158.600 395.603 C 175.860 401.025,220.435 400.937,242.200 395.439 C 242.640 395.328,244.530 394.861,246.400 394.401 C 371.739 363.580,436.076 226.118,378.959 111.179 C 355.354 63.677,313.589 27.245,263.800 10.724 C 260.280 9.556,257.340 8.464,257.266 8.298 C 257.192 8.131,256.989 8.083,256.815 8.191 C 256.641 8.298,255.622 8.127,254.549 7.810 C 249.590 6.343,240.908 4.222,238.000 3.766 C 237.230 3.646,235.970 3.391,235.200 3.199 C 226.874 1.128,202.565 -0.367,189.400 0.384 M217.000 78.578 C 220.227 79.714,223.271 82.735,223.767 85.294 C 223.821 85.572,224.095 86.610,224.376 87.600 C 225.078 90.074,225.118 91.422,225.394 121.600 C 225.697 154.758,226.031 157.507,229.964 159.248 C 230.644 159.549,231.200 159.886,231.199 159.998 C 231.199 160.109,233.764 160.152,236.899 160.093 C 240.384 160.028,242.387 160.127,242.051 160.347 C 241.721 160.564,244.333 160.622,248.612 160.494 C 253.327 160.352,255.637 160.416,255.473 160.682 C 255.322 160.927,255.612 161.010,256.213 160.895 C 257.863 160.580,261.399 162.569,262.204 164.266 C 264.004 168.058,263.283 169.452,251.170 185.616 C 245.983 192.537,238.887 202.160,235.402 207.000 C 215.166 235.098,206.625 245.763,203.000 247.457 C 196.327 250.577,192.989 247.076,161.193 203.601 C 158.067 199.327,142.623 179.059,140.313 176.200 C 136.258 171.180,134.976 166.685,136.762 163.755 C 137.697 162.222,140.785 160.648,142.394 160.884 C 143.051 160.981,143.458 160.893,143.328 160.683 C 143.188 160.457,146.620 160.368,152.111 160.456 C 157.068 160.535,161.034 160.455,160.924 160.277 C 160.814 160.099,162.974 160.009,165.725 160.077 C 168.475 160.144,170.642 160.065,170.539 159.900 C 170.437 159.735,170.710 159.600,171.146 159.600 C 172.597 159.600,174.353 157.674,175.099 155.265 C 175.878 152.749,175.886 152.163,175.694 111.600 C 175.637 99.610,175.689 89.260,175.810 88.600 C 176.682 83.819,179.287 80.440,183.400 78.753 C 186.368 77.535,213.636 77.394,217.000 78.578 M147.907 161.090 C 148.626 161.179,149.706 161.177,150.307 161.086 C 150.908 160.995,150.320 160.922,149.000 160.924 C 147.680 160.926,147.188 161.001,147.907 161.090 M128.000 241.121 C 128.000 241.542,125.316 249.565,124.829 250.600 C 124.297 251.731,117.200 272.782,117.200 273.231 C 117.200 273.455,150.013 273.600,201.000 273.600 C 247.090 273.600,284.800 273.534,284.800 273.453 C 284.800 273.373,283.898 270.659,282.795 267.424 C 281.692 264.188,280.910 261.346,281.057 261.109 C 281.227 260.833,281.134 260.794,280.799 261.001 C 280.408 261.242,280.332 261.105,280.500 260.462 C 280.624 259.987,280.604 259.674,280.456 259.765 C 280.215 259.914,273.946 241.833,273.984 241.100 C 273.993 240.935,280.385 240.800,288.190 240.800 L 302.379 240.800 302.941 241.900 C 304.970 245.875,322.197 288.736,322.778 291.255 C 325.171 301.635,318.324 313.113,306.555 318.450 C 301.055 320.943,297.426 321.625,287.600 322.008 C 270.625 322.669,108.360 322.488,104.135 321.802 C 89.199 319.380,78.007 308.925,76.924 296.383 C 76.557 292.131,78.450 286.692,88.125 264.200 C 89.545 260.900,92.365 254.285,94.392 249.500 L 98.078 240.800 113.039 240.800 C 121.268 240.800,128.000 240.945,128.000 241.121 " stroke="none" fill="#e27200" fill-rule="evenodd"></path><path id="path2" d="M191.507 0.290 C 192.226 0.379,193.306 0.377,193.907 0.286 C 194.508 0.195,193.920 0.122,192.600 0.124 C 191.280 0.126,190.788 0.201,191.507 0.290 M206.500 0.287 C 207.105 0.378,208.095 0.378,208.700 0.287 C 209.305 0.195,208.810 0.120,207.600 0.120 C 206.390 0.120,205.895 0.195,206.500 0.287 M157.600 4.400 C 156.776 4.664,156.741 4.726,157.400 4.754 C 157.840 4.773,158.470 4.613,158.800 4.400 C 159.501 3.947,159.014 3.947,157.600 4.400 M243.200 4.729 C 243.530 4.932,244.790 5.320,246.000 5.592 C 247.210 5.864,249.820 6.526,251.800 7.063 C 257.202 8.528,257.112 8.509,256.350 8.027 C 255.993 7.801,253.113 6.970,249.950 6.181 C 241.937 4.181,242.504 4.303,243.200 4.729 M149.005 6.431 C 142.114 8.235,131.694 11.525,131.407 11.988 C 131.301 12.161,133.955 11.412,137.307 10.324 C 140.658 9.235,146.077 7.645,149.349 6.790 C 152.621 5.935,155.396 5.137,155.516 5.017 C 155.872 4.661,155.272 4.791,149.005 6.431 M257.214 8.332 C 257.222 8.480,260.147 9.562,263.714 10.738 C 267.281 11.914,270.470 12.974,270.800 13.093 C 271.130 13.212,271.262 13.162,271.093 12.981 C 270.923 12.800,270.203 12.436,269.493 12.173 C 262.961 9.754,257.194 7.950,257.214 8.332 M289.200 20.987 C 289.200 21.097,290.100 21.643,291.200 22.200 C 292.300 22.757,293.200 23.123,293.200 23.013 C 293.200 22.903,292.300 22.357,291.200 21.800 C 290.100 21.243,289.200 20.877,289.200 20.987 M101.391 25.864 C 96.431 28.621,86.400 35.002,86.400 35.399 C 86.400 35.523,87.705 34.749,89.300 33.680 C 92.945 31.235,101.717 25.960,104.383 24.609 C 105.492 24.046,106.400 23.500,106.400 23.393 C 106.400 23.080,106.382 23.089,101.391 25.864 M295.600 24.397 C 295.930 24.620,298.810 26.358,302.000 28.259 C 305.190 30.159,309.105 32.594,310.700 33.669 C 312.295 34.745,313.600 35.534,313.600 35.423 C 313.600 34.882,300.287 26.518,296.696 24.802 C 295.763 24.356,295.270 24.174,295.600 24.397 M84.908 36.141 C 84.417 36.384,83.923 36.823,83.811 37.117 C 83.692 37.426,84.108 37.293,84.803 36.798 C 85.739 36.131,86.464 35.372,85.900 35.649 C 85.845 35.676,85.398 35.897,84.908 36.141 M323.200 42.497 C 323.200 42.588,325.095 44.237,327.411 46.163 C 329.728 48.088,332.743 50.676,334.111 51.914 C 335.915 53.544,336.214 53.730,335.200 52.588 C 334.430 51.721,333.593 50.875,333.339 50.708 C 333.085 50.541,331.463 49.188,329.735 47.702 C 326.055 44.538,323.200 42.264,323.200 42.497 M68.400 49.330 C 66.090 51.382,63.930 53.398,63.600 53.810 C 63.270 54.222,65.205 52.602,67.900 50.210 C 72.316 46.290,73.034 45.600,72.700 45.600 C 72.645 45.600,70.710 47.279,68.400 49.330 M341.591 58.943 C 343.456 60.844,345.042 62.400,345.115 62.400 C 345.473 62.400,341.002 57.647,339.697 56.640 C 338.874 56.005,339.726 57.041,341.591 58.943 M58.843 58.023 C 58.317 58.461,57.971 58.905,58.075 59.008 C 58.179 59.112,58.686 58.748,59.201 58.198 C 60.324 57.004,60.162 56.925,58.843 58.023 M52.333 65.100 C 51.309 66.145,49.697 67.900,48.751 69.000 C 47.805 70.100,46.678 71.405,46.246 71.900 C 45.814 72.395,45.550 72.800,45.660 72.800 C 45.770 72.800,47.783 70.640,50.134 68.000 C 52.485 65.360,54.361 63.200,54.303 63.200 C 54.244 63.200,53.358 64.055,52.333 65.100 M347.818 65.600 C 348.917 66.810,351.150 69.375,352.779 71.300 C 354.408 73.225,355.827 74.800,355.933 74.800 C 356.139 74.800,356.151 74.815,352.512 70.519 C 351.170 68.934,349.824 67.314,349.522 66.919 C 349.220 66.523,348.263 65.570,347.396 64.800 C 346.061 63.614,346.126 63.737,347.818 65.600 M202.080 77.898 C 203.994 77.971,207.234 77.971,209.280 77.898 C 211.326 77.826,209.760 77.766,205.800 77.765 C 201.840 77.765,200.166 77.824,202.080 77.898 M178.962 81.658 C 178.204 82.512,178.205 82.514,179.100 82.044 C 179.595 81.784,180.000 81.398,180.000 81.186 C 180.000 80.618,179.809 80.705,178.962 81.658 M31.858 91.500 C 28.383 96.846,25.494 101.766,24.049 104.800 C 22.852 107.312,23.566 106.195,26.825 100.456 C 28.369 97.737,30.969 93.462,32.603 90.956 C 34.237 88.450,35.484 86.400,35.373 86.400 C 35.263 86.400,33.681 88.695,31.858 91.500 M367.348 90.900 C 368.955 93.375,371.039 96.705,371.980 98.300 C 372.921 99.895,373.767 101.200,373.860 101.200 C 374.217 101.200,369.933 94.043,366.764 89.346 C 363.668 84.759,364.091 85.883,367.348 90.900 M224.493 89.400 C 224.494 90.060,224.632 91.140,224.800 91.800 C 225.223 93.463,225.242 91.826,224.823 89.800 C 224.545 88.455,224.492 88.391,224.493 89.400 M224.976 105.200 C 224.976 111.470,225.032 114.035,225.099 110.900 C 225.167 107.765,225.167 102.635,225.099 99.500 C 225.032 96.365,224.976 98.930,224.976 105.200 M175.776 122.600 C 175.776 128.760,175.832 131.224,175.899 128.076 C 175.967 124.927,175.967 119.887,175.899 116.876 C 175.831 113.864,175.776 116.440,175.776 122.600 M225.380 131.200 C 225.380 139.010,225.434 142.205,225.499 138.300 C 225.565 134.395,225.565 128.005,225.499 124.100 C 225.434 120.195,225.380 123.390,225.380 131.200 M384.419 123.000 C 384.409 123.594,385.123 124.610,385.374 124.359 C 385.494 124.240,385.329 123.795,385.009 123.371 C 384.688 122.947,384.422 122.780,384.419 123.000 M13.218 127.566 C 12.973 128.025,12.939 128.400,13.143 128.400 C 13.554 128.400,14.122 127.188,13.842 126.908 C 13.744 126.811,13.464 127.107,13.218 127.566 M12.667 129.067 C 12.520 129.213,12.411 129.708,12.425 130.167 C 12.449 130.933,12.482 130.923,12.834 130.042 C 13.226 129.063,13.144 128.589,12.667 129.067 M386.969 129.400 C 388.307 133.014,391.281 142.161,392.203 145.499 C 392.826 147.753,393.410 149.523,393.500 149.433 C 393.994 148.939,387.914 129.727,387.002 128.899 C 386.821 128.734,386.806 128.960,386.969 129.400 M11.382 132.700 C 9.849 136.359,7.024 146.428,4.173 158.399 C 4.042 158.949,4.044 159.289,4.177 159.156 C 4.311 159.023,5.219 155.693,6.196 151.757 C 7.173 147.821,8.946 141.585,10.136 137.900 C 12.247 131.367,12.655 129.662,11.382 132.700 M225.462 149.600 C 225.763 152.801,226.737 156.509,227.460 157.200 C 228.029 157.745,228.031 157.688,227.476 156.584 C 227.141 155.915,226.652 154.205,226.390 152.784 C 225.552 148.228,225.230 147.125,225.462 149.600 M173.634 158.153 L 172.669 159.400 173.813 158.312 C 174.443 157.714,174.877 157.153,174.779 157.065 C 174.680 156.977,174.165 157.467,173.634 158.153 M161.000 160.400 C 161.316 160.912,165.208 160.912,166.000 160.400 C 166.418 160.130,165.712 160.010,163.676 160.006 C 161.828 160.002,160.844 160.147,161.000 160.400 M237.000 160.400 C 238.753 160.846,241.310 160.846,242.000 160.400 C 242.411 160.135,241.528 160.025,239.200 160.053 C 236.790 160.083,236.149 160.184,237.000 160.400 M143.366 160.699 C 143.788 161.121,155.175 161.165,155.434 160.745 C 155.551 160.555,152.817 160.400,149.357 160.400 C 145.897 160.400,143.201 160.535,143.366 160.699 M250.400 160.800 C 251.855 161.266,255.112 161.266,255.400 160.800 C 255.557 160.545,254.514 160.414,252.524 160.440 C 250.348 160.468,249.703 160.577,250.400 160.800 M149.400 188.000 C 151.066 190.200,152.519 192.000,152.629 192.000 C 152.739 192.000,151.466 190.200,149.800 188.000 C 148.134 185.800,146.681 184.000,146.571 184.000 C 146.461 184.000,147.734 185.800,149.400 188.000 M399.293 185.200 C 399.293 185.970,399.375 186.285,399.476 185.900 C 399.576 185.515,399.576 184.885,399.476 184.500 C 399.375 184.115,399.293 184.430,399.293 185.200 M251.200 184.900 C 250.963 185.175,249.402 187.290,247.731 189.600 C 246.060 191.910,244.514 194.025,244.297 194.300 C 244.080 194.575,243.997 194.800,244.113 194.800 C 244.229 194.800,246.048 192.460,248.155 189.600 C 251.418 185.169,252.780 183.067,251.200 184.900 M0.120 192.400 C 0.120 193.610,0.195 194.105,0.287 193.500 C 0.378 192.895,0.378 191.905,0.287 191.300 C 0.195 190.695,0.120 191.190,0.120 192.400 M399.724 192.600 C 399.726 193.920,399.801 194.412,399.890 193.693 C 399.979 192.974,399.977 191.894,399.886 191.293 C 399.795 190.692,399.722 191.280,399.724 192.600 M162.694 205.700 C 162.910 205.975,165.192 209.035,167.765 212.500 C 170.339 215.965,172.545 218.800,172.669 218.800 C 172.793 218.800,172.454 218.215,171.916 217.500 C 171.377 216.785,169.084 213.725,166.819 210.700 C 164.555 207.675,162.612 205.200,162.502 205.200 C 162.392 205.200,162.479 205.425,162.694 205.700 M399.724 207.400 C 399.726 208.720,399.801 209.212,399.890 208.493 C 399.979 207.774,399.977 206.694,399.886 206.093 C 399.795 205.492,399.722 206.080,399.724 207.400 M0.120 207.600 C 0.120 208.810,0.195 209.305,0.287 208.700 C 0.378 208.095,0.378 207.105,0.287 206.500 C 0.195 205.895,0.120 206.390,0.120 207.600 M234.101 208.300 C 232.871 209.881,231.982 211.310,232.670 210.600 C 233.470 209.775,235.659 206.800,235.467 206.800 C 235.357 206.800,234.742 207.475,234.101 208.300 M230.800 212.699 C 229.296 214.940,229.144 215.200,229.343 215.200 C 229.443 215.200,230.172 214.300,230.962 213.200 C 231.752 212.100,232.264 211.202,232.099 211.205 C 231.935 211.208,231.350 211.880,230.800 212.699 M399.293 214.800 C 399.293 215.570,399.375 215.885,399.476 215.500 C 399.576 215.115,399.576 214.485,399.476 214.100 C 399.375 213.715,399.293 214.030,399.293 214.800 M227.740 216.905 C 227.266 217.617,226.306 218.965,225.605 219.900 C 224.904 220.835,224.415 221.600,224.517 221.600 C 224.619 221.600,225.719 220.250,226.961 218.600 C 228.203 216.950,229.080 215.602,228.910 215.605 C 228.739 215.608,228.213 216.193,227.740 216.905 M212.800 236.649 C 212.800 237.180,212.909 237.208,213.400 236.800 C 213.730 236.526,214.000 236.234,214.000 236.151 C 214.000 236.068,213.730 236.000,213.400 236.000 C 213.070 236.000,212.800 236.292,212.800 236.649 M4.133 241.400 C 4.260 241.840,4.817 244.180,5.370 246.600 C 7.170 254.482,11.270 268.149,11.963 268.577 C 12.146 268.690,11.322 265.771,10.133 262.091 C 8.944 258.411,7.173 252.179,6.196 248.243 C 5.219 244.307,4.303 240.977,4.160 240.843 C 4.017 240.709,4.005 240.960,4.133 241.400 M126.097 245.885 C 125.178 248.662,124.577 250.769,124.763 250.567 C 125.196 250.096,128.134 241.201,127.926 240.992 C 127.839 240.906,127.017 243.108,126.097 245.885 M192.000 243.789 C 197.697 249.706,201.910 249.752,207.400 243.957 L 209.800 241.424 207.127 243.920 C 201.452 249.217,197.531 249.188,192.445 243.810 C 191.319 242.620,190.174 241.521,189.899 241.368 C 189.625 241.214,190.570 242.304,192.000 243.789 M302.828 242.200 C 302.828 242.420,303.086 243.050,303.400 243.600 C 303.714 244.150,303.972 244.420,303.972 244.200 C 303.972 243.980,303.714 243.350,303.400 242.800 C 303.086 242.250,302.828 241.980,302.828 242.200 M304.800 246.878 C 304.800 247.374,310.503 261.037,310.862 261.400 C 311.302 261.845,310.711 260.302,307.421 252.422 C 305.364 247.492,304.800 246.299,304.800 246.878 M91.055 257.357 C 89.378 261.419,87.372 266.133,86.598 267.833 C 85.225 270.844,84.836 272.499,86.111 269.902 C 88.076 265.899,94.480 250.346,94.255 250.122 C 94.172 250.039,92.732 253.295,91.055 257.357 M392.038 255.050 C 391.306 257.663,389.839 262.315,388.776 265.388 C 387.713 268.462,386.919 271.053,387.012 271.146 C 387.105 271.239,387.296 270.974,387.436 270.557 C 387.576 270.141,388.202 268.433,388.826 266.762 C 390.266 262.910,393.668 251.203,393.496 250.688 C 393.425 250.475,392.769 252.438,392.038 255.050 M312.230 264.999 C 312.475 266.251,312.688 266.648,312.963 266.367 C 313.053 266.275,312.872 265.660,312.561 265.000 L 311.995 263.800 312.230 264.999 M12.428 269.876 C 12.413 270.358,12.580 270.864,12.800 271.000 C 13.273 271.292,13.273 270.901,12.800 269.800 C 12.469 269.029,12.455 269.031,12.428 269.876 M13.218 272.434 C 13.464 272.893,13.744 273.189,13.842 273.092 C 14.122 272.812,13.554 271.600,13.143 271.600 C 12.939 271.600,12.973 271.975,13.218 272.434 M116.806 273.300 C 116.800 273.965,121.041 273.995,201.100 273.901 L 285.400 273.802 201.423 273.700 C 134.851 273.619,117.380 273.495,117.129 273.099 C 116.904 272.744,116.810 272.802,116.806 273.300 M21.200 289.753 C 21.200 290.182,22.390 292.400,22.621 292.400 C 22.731 292.400,22.523 291.815,22.159 291.100 C 21.417 289.640,21.200 289.336,21.200 289.753 M25.642 298.300 C 29.008 304.250,34.186 312.400,34.600 312.400 C 34.697 312.400,33.639 310.645,32.249 308.500 C 30.859 306.355,28.595 302.665,27.217 300.300 C 25.840 297.935,24.629 296.000,24.527 296.000 C 24.425 296.000,24.927 297.035,25.642 298.300 M371.980 301.700 C 371.039 303.295,368.955 306.625,367.348 309.100 C 364.091 314.117,363.668 315.241,366.764 310.654 C 369.933 305.957,374.217 298.800,373.860 298.800 C 373.767 298.800,372.921 300.105,371.980 301.700 M84.295 312.079 C 84.999 312.783,85.698 313.235,85.850 313.083 C 86.180 312.753,84.159 310.800,83.487 310.800 C 83.228 310.800,83.591 311.376,84.295 312.079 M107.300 322.276 C 107.685 322.376,108.315 322.376,108.700 322.276 C 109.085 322.175,108.770 322.093,108.000 322.093 C 107.230 322.093,106.915 322.175,107.300 322.276 M247.472 322.300 C 253.671 322.362,263.931 322.362,270.272 322.300 C 276.612 322.238,271.540 322.187,259.000 322.187 C 246.460 322.187,241.272 322.238,247.472 322.300 M44.458 325.900 C 47.529 329.590,52.142 334.795,53.057 335.600 C 53.681 336.150,53.290 335.610,52.188 334.400 C 51.085 333.190,48.850 330.625,47.221 328.700 C 45.592 326.775,44.173 325.200,44.067 325.200 C 43.962 325.200,44.138 325.515,44.458 325.900 M354.162 327.090 C 353.309 328.140,351.105 330.710,349.265 332.800 L 345.920 336.600 348.886 333.535 C 350.517 331.849,352.313 329.869,352.878 329.135 C 353.442 328.401,354.386 327.285,354.974 326.655 C 355.563 326.026,355.970 325.436,355.879 325.345 C 355.788 325.254,355.015 326.039,354.162 327.090 M341.392 341.289 C 339.416 343.317,338.310 344.532,338.932 343.989 C 339.555 343.445,340.095 343.088,340.132 343.197 C 340.170 343.305,340.987 342.630,341.948 341.697 C 342.910 340.763,343.551 340.000,343.373 340.000 C 343.196 340.000,343.568 339.460,344.200 338.800 C 344.832 338.140,345.267 337.600,345.166 337.600 C 345.066 337.600,343.367 339.260,341.392 341.289 M57.677 340.717 C 57.965 341.112,59.100 342.228,60.200 343.198 C 62.082 344.858,62.059 344.816,59.813 342.481 C 57.390 339.963,56.732 339.420,57.677 340.717 M64.800 347.404 C 65.570 348.275,66.438 349.142,66.728 349.330 C 67.018 349.517,68.638 350.858,70.328 352.308 C 74.736 356.091,74.800 356.143,74.800 355.933 C 74.800 355.827,73.225 354.408,71.300 352.779 C 69.375 351.150,66.810 348.917,65.600 347.818 C 63.702 346.094,63.592 346.037,64.800 347.404 M332.591 349.324 C 330.606 351.126,327.996 353.447,326.791 354.482 C 325.586 355.518,324.703 356.373,324.828 356.382 C 324.953 356.392,325.673 355.841,326.428 355.159 C 327.183 354.476,328.421 353.441,329.181 352.859 C 330.724 351.675,336.712 346.015,336.400 346.035 C 336.290 346.042,334.576 347.522,332.591 349.324 M83.810 362.875 C 83.989 363.335,86.000 364.542,86.000 364.190 C 86.000 364.115,85.461 363.671,84.803 363.202 C 84.134 362.726,83.696 362.581,83.810 362.875 M86.400 364.603 C 86.400 364.900,93.146 369.318,97.800 372.069 C 102.967 375.123,104.000 375.688,104.000 375.458 C 104.000 375.364,102.065 374.161,99.700 372.785 C 97.335 371.408,93.375 368.964,90.900 367.354 C 88.425 365.744,86.400 364.506,86.400 364.603 M311.400 365.841 C 310.300 366.609,307.150 368.609,304.400 370.285 C 298.937 373.616,297.207 374.891,301.000 372.792 C 305.511 370.295,314.666 364.165,313.500 364.422 C 313.445 364.434,312.500 365.073,311.400 365.841 M297.100 374.629 C 295.605 375.440,295.696 375.778,297.200 375.000 C 297.860 374.659,298.400 374.294,298.400 374.190 C 298.400 373.932,298.357 373.947,297.100 374.629 M276.012 384.784 C 275.688 384.989,275.521 385.254,275.641 385.374 C 275.760 385.494,276.205 385.329,276.629 385.009 C 277.473 384.371,276.960 384.185,276.012 384.784 M125.371 385.809 C 125.795 386.129,126.240 386.294,126.359 386.174 C 126.610 385.923,125.594 385.209,125.000 385.219 C 124.780 385.222,124.947 385.488,125.371 385.809 M272.012 386.384 C 271.688 386.589,271.521 386.854,271.641 386.974 C 271.760 387.094,272.205 386.929,272.629 386.609 C 273.473 385.971,272.960 385.785,272.012 386.384 M128.900 387.012 C 129.508 387.663,141.610 391.715,141.586 391.260 C 141.579 391.117,138.924 390.128,135.686 389.062 C 132.449 387.995,129.530 387.026,129.200 386.907 C 128.870 386.788,128.735 386.835,128.900 387.012 M265.800 388.614 C 263.160 389.553,258.617 391.000,255.705 391.832 C 252.792 392.663,250.482 393.415,250.570 393.504 C 251.001 393.935,270.144 387.998,270.980 387.174 C 271.555 386.608,271.052 386.748,265.800 388.614 M142.435 391.553 C 143.226 392.068,149.205 393.728,149.436 393.497 C 149.530 393.404,148.158 392.930,146.388 392.445 C 144.618 391.960,142.861 391.468,142.485 391.351 C 141.881 391.165,141.875 391.188,142.435 391.553 M248.000 394.000 C 247.196 394.257,247.157 394.323,247.800 394.332 C 248.240 394.338,248.960 394.189,249.400 394.000 C 250.419 393.562,249.368 393.562,248.000 394.000 M184.500 399.476 C 184.885 399.576,185.515 399.576,185.900 399.476 C 186.285 399.375,185.970 399.293,185.200 399.293 C 184.430 399.293,184.115 399.375,184.500 399.476 M214.100 399.476 C 214.485 399.576,215.115 399.576,215.500 399.476 C 215.885 399.375,215.570 399.293,214.800 399.293 C 214.030 399.293,213.715 399.375,214.100 399.476 M191.507 399.890 C 192.226 399.979,193.306 399.977,193.907 399.886 C 194.508 399.795,193.920 399.722,192.600 399.724 C 191.280 399.726,190.788 399.801,191.507 399.890 M206.307 399.890 C 207.026 399.979,208.106 399.977,208.707 399.886 C 209.308 399.795,208.720 399.722,207.400 399.724 C 206.080 399.726,205.588 399.801,206.307 399.890 " stroke="none" fill="#585858" fill-rule="evenodd"></path></g></svg>