<svg id="svg" version="1.1" width="400" height="533.3333333333334" viewBox="0 0 400 533.3333333333334" xmlns="http://www.w3.org/2000/svg" xmlns:xlink="http://www.w3.org/1999/xlink" ><g id="svgg"><path id="path0" d="M15.700 0.293 C 14.556 0.396,14.000 0.635,14.000 1.023 C 14.000 1.372,13.605 1.600,13.000 1.600 C 12.378 1.600,12.000 1.827,12.000 2.200 C 12.000 2.573,11.622 2.800,11.000 2.800 C 10.450 2.800,10.000 2.980,10.000 3.200 C 10.000 3.420,9.730 3.600,9.400 3.600 C 9.070 3.600,8.800 3.793,8.800 4.029 C 8.800 4.582,7.782 5.600,7.229 5.600 C 6.993 5.600,6.800 5.870,6.800 6.200 C 6.800 6.530,6.530 6.800,6.200 6.800 C 5.870 6.800,5.600 6.993,5.600 7.229 C 5.600 7.782,4.582 8.800,4.029 8.800 C 3.793 8.800,3.600 9.070,3.600 9.400 C 3.600 9.730,3.420 10.000,3.200 10.000 C 2.980 10.000,2.800 10.450,2.800 11.000 C 2.800 11.622,2.573 12.000,2.200 12.000 C 1.827 12.000,1.600 12.378,1.600 13.000 C 1.600 13.576,1.370 14.000,1.057 14.000 C 0.024 14.000,0.000 19.728,0.000 266.600 C 0.000 513.472,0.024 519.200,1.057 519.200 C 1.370 519.200,1.600 519.624,1.600 520.200 C 1.600 520.822,1.827 521.200,2.200 521.200 C 2.573 521.200,2.800 521.578,2.800 522.200 C 2.800 522.750,2.980 523.200,3.200 523.200 C 3.420 523.200,3.600 523.470,3.600 523.800 C 3.600 524.130,3.793 524.400,4.029 524.400 C 4.582 524.400,5.600 525.418,5.600 525.971 C 5.600 526.207,5.870 526.400,6.200 526.400 C 6.530 526.400,6.800 526.670,6.800 527.000 C 6.800 527.330,6.993 527.600,7.229 527.600 C 7.782 527.600,8.800 528.618,8.800 529.171 C 8.800 529.407,9.070 529.600,9.400 529.600 C 9.730 529.600,10.000 529.780,10.000 530.000 C 10.000 530.220,10.450 530.400,11.000 530.400 C 11.622 530.400,12.000 530.627,12.000 531.000 C 12.000 531.373,12.378 531.600,13.000 531.600 C 13.576 531.600,14.000 531.830,14.000 532.143 C 14.000 533.170,19.195 533.200,200.000 533.200 C 380.805 533.200,386.000 533.170,386.000 532.143 C 386.000 531.830,386.424 531.600,387.000 531.600 C 387.622 531.600,388.000 531.373,388.000 531.000 C 388.000 530.627,388.378 530.400,389.000 530.400 C 389.550 530.400,390.000 530.220,390.000 530.000 C 390.000 529.780,390.270 529.600,390.600 529.600 C 390.930 529.600,391.200 529.407,391.200 529.171 C 391.200 528.618,392.218 527.600,392.771 527.600 C 393.007 527.600,393.200 527.330,393.200 527.000 C 393.200 526.670,393.470 526.400,393.800 526.400 C 394.130 526.400,394.400 526.207,394.400 525.971 C 394.400 525.418,395.418 524.400,395.971 524.400 C 396.207 524.400,396.400 524.130,396.400 523.800 C 396.400 523.470,396.580 523.200,396.800 523.200 C 397.020 523.200,397.200 522.750,397.200 522.200 C 397.200 521.578,397.427 521.200,397.800 521.200 C 398.173 521.200,398.400 520.822,398.400 520.200 C 398.400 519.624,398.630 519.200,398.943 519.200 C 399.970 519.200,400.000 514.053,400.000 339.141 L 400.000 164.000 327.400 164.000 C 279.267 164.000,254.800 163.865,254.800 163.600 C 254.800 163.380,254.080 163.200,253.200 163.200 C 252.044 163.200,251.600 163.033,251.600 162.600 C 251.600 162.179,251.176 162.000,250.181 162.000 C 249.181 162.000,248.488 161.705,247.835 161.000 C 247.325 160.450,246.524 160.000,246.054 160.000 C 245.584 160.000,245.200 159.807,245.200 159.571 C 245.200 159.018,244.182 158.000,243.629 158.000 C 243.393 158.000,243.200 157.730,243.200 157.400 C 243.200 157.070,242.960 156.800,242.668 156.800 C 242.375 156.800,241.894 156.350,241.600 155.800 C 241.306 155.250,240.825 154.800,240.532 154.800 C 240.240 154.800,240.000 154.416,240.000 153.946 C 240.000 153.476,239.550 152.675,239.000 152.165 C 238.295 151.512,238.000 150.819,238.000 149.819 C 238.000 148.824,237.821 148.400,237.400 148.400 C 236.983 148.400,236.800 147.980,236.800 147.024 C 236.800 146.267,236.620 145.536,236.400 145.400 C 236.136 145.237,236.000 120.529,236.000 72.576 L 236.000 0.000 126.700 0.070 C 66.585 0.108,16.635 0.209,15.700 0.293 M264.000 67.358 C 264.000 127.040,264.069 134.800,264.600 134.800 C 264.930 134.800,265.200 135.070,265.200 135.400 C 265.200 135.931,272.956 136.000,332.600 136.000 L 400.000 136.000 400.000 128.459 C 400.000 119.429,399.709 116.000,398.943 116.000 C 398.630 116.000,398.400 115.576,398.400 115.000 C 398.400 114.378,398.173 114.000,397.800 114.000 C 397.427 114.000,397.200 113.622,397.200 113.000 C 397.200 112.450,397.020 112.000,396.800 112.000 C 396.580 112.000,396.400 111.730,396.400 111.400 C 396.400 111.070,396.207 110.800,395.971 110.800 C 395.736 110.800,395.286 110.543,394.971 110.229 C 394.657 109.914,394.400 109.464,394.400 109.229 C 394.400 108.993,394.130 108.800,393.800 108.800 C 393.470 108.800,393.200 108.620,393.200 108.400 C 393.200 108.180,392.930 108.000,392.600 108.000 C 392.270 108.000,392.000 107.730,392.000 107.400 C 392.000 107.070,391.820 106.800,391.600 106.800 C 391.380 106.800,391.200 106.530,391.200 106.200 C 391.200 105.870,391.007 105.600,390.771 105.600 C 390.218 105.600,389.200 104.582,389.200 104.029 C 389.200 103.793,388.930 103.600,388.600 103.600 C 388.270 103.600,388.000 103.420,388.000 103.200 C 388.000 102.980,387.730 102.800,387.400 102.800 C 387.070 102.800,386.800 102.530,386.800 102.200 C 386.800 101.870,386.620 101.600,386.400 101.600 C 386.180 101.600,386.000 101.330,386.000 101.000 C 386.000 100.670,385.807 100.400,385.571 100.400 C 385.018 100.400,384.000 99.382,384.000 98.829 C 384.000 98.593,383.730 98.400,383.400 98.400 C 383.070 98.400,382.800 98.220,382.800 98.000 C 382.800 97.780,382.530 97.600,382.200 97.600 C 381.870 97.600,381.600 97.330,381.600 97.000 C 381.600 96.670,381.420 96.400,381.200 96.400 C 380.980 96.400,380.800 96.130,380.800 95.800 C 380.800 95.470,380.607 95.200,380.371 95.200 C 379.818 95.200,378.800 94.182,378.800 93.629 C 378.800 93.393,378.530 93.200,378.200 93.200 C 377.870 93.200,377.600 93.020,377.600 92.800 C 377.600 92.580,377.330 92.400,377.000 92.400 C 376.670 92.400,376.400 92.130,376.400 91.800 C 376.400 91.470,376.220 91.200,376.000 91.200 C 375.780 91.200,375.600 90.930,375.600 90.600 C 375.600 90.270,375.407 90.000,375.171 90.000 C 374.618 90.000,373.600 88.982,373.600 88.429 C 373.600 88.193,373.330 88.000,373.000 88.000 C 372.670 88.000,372.400 87.820,372.400 87.600 C 372.400 87.380,372.130 87.200,371.800 87.200 C 371.470 87.200,371.200 86.930,371.200 86.600 C 371.200 86.270,371.020 86.000,370.800 86.000 C 370.580 86.000,370.400 85.730,370.400 85.400 C 370.400 85.070,370.207 84.800,369.971 84.800 C 369.418 84.800,368.400 83.782,368.400 83.229 C 368.400 82.993,368.130 82.800,367.800 82.800 C 367.470 82.800,367.200 82.620,367.200 82.400 C 367.200 82.180,366.930 82.000,366.600 82.000 C 366.270 82.000,366.000 81.730,366.000 81.400 C 366.000 81.070,365.820 80.800,365.600 80.800 C 365.380 80.800,365.200 80.530,365.200 80.200 C 365.200 79.870,365.007 79.600,364.771 79.600 C 364.218 79.600,363.200 78.582,363.200 78.029 C 363.200 77.793,362.930 77.600,362.600 77.600 C 362.270 77.600,362.000 77.420,362.000 77.200 C 362.000 76.980,361.730 76.800,361.400 76.800 C 361.070 76.800,360.800 76.530,360.800 76.200 C 360.800 75.870,360.620 75.600,360.400 75.600 C 360.180 75.600,360.000 75.330,360.000 75.000 C 360.000 74.670,359.807 74.400,359.571 74.400 C 359.018 74.400,358.000 73.382,358.000 72.829 C 358.000 72.593,357.730 72.400,357.400 72.400 C 357.070 72.400,356.800 72.220,356.800 72.000 C 356.800 71.780,356.530 71.600,356.200 71.600 C 355.870 71.600,355.600 71.330,355.600 71.000 C 355.600 70.670,355.420 70.400,355.200 70.400 C 354.980 70.400,354.800 70.130,354.800 69.800 C 354.800 69.470,354.607 69.200,354.371 69.200 C 353.818 69.200,352.800 68.182,352.800 67.629 C 352.800 67.393,352.530 67.200,352.200 67.200 C 351.870 67.200,351.600 66.930,351.600 66.600 C 351.600 66.270,351.407 66.000,351.171 66.000 C 350.618 66.000,349.600 64.982,349.600 64.429 C 349.600 64.193,349.330 64.000,349.000 64.000 C 348.670 64.000,348.400 63.820,348.400 63.600 C 348.400 63.380,348.130 63.200,347.800 63.200 C 347.470 63.200,347.200 62.930,347.200 62.600 C 347.200 62.270,347.020 62.000,346.800 62.000 C 346.580 62.000,346.400 61.730,346.400 61.400 C 346.400 61.070,346.207 60.800,345.971 60.800 C 345.418 60.800,344.400 59.782,344.400 59.229 C 344.400 58.993,344.130 58.800,343.800 58.800 C 343.470 58.800,343.200 58.620,343.200 58.400 C 343.200 58.180,342.930 58.000,342.600 58.000 C 342.270 58.000,342.000 57.730,342.000 57.400 C 342.000 57.070,341.820 56.800,341.600 56.800 C 341.380 56.800,341.200 56.530,341.200 56.200 C 341.200 55.870,341.007 55.600,340.771 55.600 C 340.218 55.600,339.200 54.582,339.200 54.029 C 339.200 53.793,338.930 53.600,338.600 53.600 C 338.270 53.600,338.000 53.420,338.000 53.200 C 338.000 52.980,337.730 52.800,337.400 52.800 C 337.070 52.800,336.800 52.530,336.800 52.200 C 336.800 51.870,336.620 51.600,336.400 51.600 C 336.180 51.600,336.000 51.330,336.000 51.000 C 336.000 50.670,335.807 50.400,335.571 50.400 C 335.018 50.400,334.000 49.382,334.000 48.829 C 334.000 48.593,333.730 48.400,333.400 48.400 C 333.070 48.400,332.800 48.220,332.800 48.000 C 332.800 47.780,332.530 47.600,332.200 47.600 C 331.870 47.600,331.600 47.330,331.600 47.000 C 331.600 46.670,331.420 46.400,331.200 46.400 C 330.980 46.400,330.800 45.950,330.800 45.400 C 330.800 44.778,330.573 44.400,330.200 44.400 C 329.870 44.400,329.600 44.207,329.600 43.971 C 329.600 43.418,328.582 42.400,328.029 42.400 C 327.793 42.400,327.600 42.130,327.600 41.800 C 327.600 41.470,327.330 41.200,327.000 41.200 C 326.670 41.200,326.400 41.007,326.400 40.771 C 326.400 40.218,325.382 39.200,324.829 39.200 C 324.593 39.200,324.400 39.007,324.400 38.771 C 324.400 38.218,323.382 37.200,322.829 37.200 C 322.593 37.200,322.400 36.930,322.400 36.600 C 322.400 36.270,322.130 36.000,321.800 36.000 C 321.470 36.000,321.200 35.807,321.200 35.571 C 321.200 35.018,320.182 34.000,319.629 34.000 C 319.393 34.000,319.200 33.807,319.200 33.571 C 319.200 33.018,318.182 32.000,317.629 32.000 C 317.393 32.000,317.200 31.730,317.200 31.400 C 317.200 31.070,316.930 30.800,316.600 30.800 C 316.270 30.800,316.000 30.607,316.000 30.371 C 316.000 29.818,314.982 28.800,314.429 28.800 C 314.193 28.800,314.000 28.607,314.000 28.371 C 314.000 27.818,312.982 26.800,312.429 26.800 C 312.193 26.800,312.000 26.530,312.000 26.200 C 312.000 25.827,311.622 25.600,311.000 25.600 C 310.200 25.600,310.000 25.400,310.000 24.600 C 310.000 23.978,309.773 23.600,309.400 23.600 C 309.070 23.600,308.800 23.330,308.800 23.000 C 308.800 22.627,308.422 22.400,307.800 22.400 C 307.000 22.400,306.800 22.200,306.800 21.400 C 306.800 20.600,306.600 20.400,305.800 20.400 C 305.000 20.400,304.800 20.200,304.800 19.400 C 304.800 18.778,304.573 18.400,304.200 18.400 C 303.870 18.400,303.600 18.130,303.600 17.800 C 303.600 17.427,303.222 17.200,302.600 17.200 C 301.800 17.200,301.600 17.000,301.600 16.200 C 301.600 15.400,301.400 15.200,300.600 15.200 C 299.800 15.200,299.600 15.000,299.600 14.200 C 299.600 13.356,299.413 13.200,298.400 13.200 C 297.333 13.200,297.200 13.067,297.200 12.000 C 297.200 10.987,297.044 10.800,296.200 10.800 C 295.455 10.800,295.200 10.589,295.200 9.971 C 295.200 9.086,294.334 8.000,293.629 8.000 C 293.393 8.000,293.200 7.730,293.200 7.400 C 293.200 7.070,292.930 6.800,292.600 6.800 C 292.270 6.800,292.000 6.530,292.000 6.200 C 292.000 5.860,291.641 5.600,291.171 5.600 C 290.286 5.600,289.200 4.734,289.200 4.029 C 289.200 3.793,288.930 3.600,288.600 3.600 C 288.270 3.600,288.000 3.420,288.000 3.200 C 288.000 2.980,287.550 2.800,287.000 2.800 C 286.378 2.800,286.000 2.573,286.000 2.200 C 286.000 1.854,285.638 1.600,285.144 1.600 C 284.673 1.600,284.058 1.285,283.776 0.900 C 283.319 0.274,282.245 0.185,273.632 0.058 L 264.000 -0.083 264.000 67.358 M222.400 231.200 C 222.400 231.420,223.120 231.600,224.000 231.600 C 225.156 231.600,225.600 231.767,225.600 232.200 C 225.600 232.573,225.978 232.800,226.600 232.800 C 227.150 232.800,227.600 232.980,227.600 233.200 C 227.600 233.420,227.870 233.600,228.200 233.600 C 228.530 233.600,228.800 233.794,228.800 234.031 C 228.800 234.591,231.009 236.800,231.569 236.800 C 231.806 236.800,232.000 237.239,232.000 237.776 C 232.000 238.313,232.180 238.864,232.400 239.000 C 232.620 239.136,232.800 239.867,232.800 240.624 C 232.800 241.580,232.983 242.000,233.400 242.000 C 233.930 242.000,234.000 247.111,234.000 285.595 C 234.000 326.269,234.046 329.245,234.689 329.995 C 235.370 330.790,235.805 330.800,271.089 330.800 C 294.630 330.800,306.800 330.936,306.800 331.200 C 306.800 331.420,307.520 331.600,308.400 331.600 C 309.556 331.600,310.000 331.767,310.000 332.200 C 310.000 332.573,310.378 332.800,311.000 332.800 C 311.550 332.800,312.000 332.980,312.000 333.200 C 312.000 333.420,312.270 333.600,312.600 333.600 C 312.930 333.600,313.200 333.794,313.200 334.031 C 313.200 334.591,315.409 336.800,315.969 336.800 C 316.206 336.800,316.400 337.250,316.400 337.800 C 316.400 338.350,316.580 338.800,316.800 338.800 C 317.020 338.800,317.200 339.256,317.200 339.813 C 317.200 340.369,317.470 340.929,317.800 341.055 C 318.271 341.236,318.400 342.050,318.400 344.843 C 318.400 347.738,318.288 348.400,317.800 348.400 C 317.427 348.400,317.200 348.778,317.200 349.400 C 317.200 349.950,317.020 350.400,316.800 350.400 C 316.580 350.400,316.400 350.749,316.400 351.176 C 316.400 351.952,237.142 431.600,236.371 431.600 C 236.167 431.600,236.000 431.771,236.000 431.980 C 236.000 432.478,223.282 445.200,222.783 445.200 C 222.572 445.200,222.400 445.374,222.400 445.588 C 222.400 446.090,214.884 453.600,214.382 453.600 C 214.172 453.600,214.000 453.870,214.000 454.200 C 214.000 454.540,213.641 454.800,213.171 454.800 C 212.286 454.800,211.200 455.666,211.200 456.371 C 211.200 456.607,210.660 456.800,210.000 456.800 C 209.340 456.800,208.800 456.980,208.800 457.200 C 208.800 457.420,208.164 457.600,207.387 457.600 C 206.501 457.600,205.889 457.823,205.745 458.200 C 205.574 458.645,204.866 458.800,203.000 458.800 C 201.134 458.800,200.426 458.645,200.255 458.200 C 200.111 457.823,199.499 457.600,198.613 457.600 C 197.836 457.600,197.200 457.420,197.200 457.200 C 197.200 456.980,196.750 456.800,196.200 456.800 C 195.650 456.800,195.200 456.607,195.200 456.371 C 195.200 455.818,194.182 454.800,193.629 454.800 C 193.393 454.800,193.200 454.530,193.200 454.200 C 193.200 453.866,192.844 453.600,192.398 453.600 C 191.957 453.600,190.715 452.700,189.638 451.600 C 188.561 450.500,187.481 449.600,187.240 449.600 C 186.998 449.600,186.800 449.408,186.800 449.174 C 186.800 448.619,182.581 444.400,182.026 444.400 C 181.792 444.400,181.600 444.208,181.600 443.974 C 181.600 443.419,177.381 439.200,176.826 439.200 C 176.592 439.200,176.400 439.008,176.400 438.774 C 176.400 438.219,172.181 434.000,171.626 434.000 C 171.392 434.000,171.200 433.808,171.200 433.574 C 171.200 433.019,166.981 428.800,166.426 428.800 C 166.192 428.800,166.000 428.609,166.000 428.376 C 166.000 427.822,148.178 410.000,147.624 410.000 C 147.391 410.000,147.200 409.808,147.200 409.574 C 147.200 409.019,142.981 404.800,142.426 404.800 C 142.192 404.800,142.000 404.608,142.000 404.374 C 142.000 403.819,137.781 399.600,137.226 399.600 C 136.992 399.600,136.800 399.408,136.800 399.174 C 136.800 398.619,132.581 394.400,132.026 394.400 C 131.792 394.400,131.600 394.208,131.600 393.974 C 131.600 393.419,127.381 389.200,126.826 389.200 C 126.592 389.200,126.400 389.008,126.400 388.774 C 126.400 388.219,122.181 384.000,121.626 384.000 C 121.392 384.000,121.200 383.808,121.200 383.574 C 121.200 383.019,116.981 378.800,116.426 378.800 C 116.192 378.800,116.000 378.608,116.000 378.374 C 116.000 377.819,111.781 373.600,111.226 373.600 C 110.992 373.600,110.800 373.408,110.800 373.174 C 110.800 372.940,109.822 371.770,108.626 370.574 C 107.430 369.378,106.260 368.400,106.026 368.400 C 105.792 368.400,105.600 368.208,105.600 367.974 C 105.600 367.419,98.181 360.000,97.626 360.000 C 97.392 360.000,97.200 359.808,97.200 359.574 C 97.200 359.019,92.981 354.800,92.426 354.800 C 92.192 354.800,92.000 354.596,92.000 354.346 C 92.000 354.096,91.550 353.475,91.000 352.965 C 90.450 352.455,90.000 351.670,90.000 351.219 C 90.000 350.769,89.820 350.400,89.600 350.400 C 89.380 350.400,89.200 350.034,89.200 349.587 C 89.200 349.141,88.930 348.671,88.600 348.545 C 87.731 348.211,87.731 342.189,88.600 341.855 C 88.977 341.711,89.200 341.099,89.200 340.213 C 89.200 339.436,89.380 338.800,89.600 338.800 C 89.820 338.800,90.000 338.350,90.000 337.800 C 90.000 337.234,90.231 336.800,90.532 336.800 C 90.825 336.800,91.306 336.350,91.600 335.800 C 91.894 335.250,92.375 334.800,92.668 334.800 C 92.960 334.800,93.200 334.530,93.200 334.200 C 93.200 333.870,93.470 333.600,93.800 333.600 C 94.130 333.600,94.400 333.420,94.400 333.200 C 94.400 332.980,94.766 332.800,95.213 332.800 C 95.659 332.800,96.129 332.530,96.255 332.200 C 96.405 331.809,97.028 331.600,98.043 331.600 C 98.899 331.600,99.600 331.420,99.600 331.200 C 99.600 330.936,111.738 330.800,135.213 330.800 C 166.499 330.800,170.853 330.727,171.055 330.200 C 171.182 329.870,171.536 329.600,171.843 329.600 C 172.316 329.600,172.400 322.978,172.400 285.843 C 172.400 247.316,172.472 242.058,173.000 241.855 C 173.347 241.722,173.600 241.124,173.600 240.436 C 173.600 239.782,173.780 239.136,174.000 239.000 C 174.220 238.864,174.400 238.313,174.400 237.776 C 174.400 237.239,174.593 236.800,174.829 236.800 C 175.382 236.800,176.400 235.782,176.400 235.229 C 176.400 234.993,176.670 234.800,177.000 234.800 C 177.330 234.800,177.600 234.530,177.600 234.200 C 177.600 233.870,177.870 233.600,178.200 233.600 C 178.530 233.600,178.800 233.420,178.800 233.200 C 178.800 232.980,179.166 232.800,179.613 232.800 C 180.059 232.800,180.529 232.530,180.655 232.200 C 180.796 231.833,181.403 231.600,182.219 231.600 C 182.953 231.600,183.664 231.420,183.800 231.200 C 183.959 230.942,190.871 230.800,203.224 230.800 C 215.741 230.800,222.400 230.939,222.400 231.200 " stroke="none" fill="#FFFFFF" fill-rule="evenodd"></path><path id="path1" d="" stroke="none" fill="#FFFFFF" fill-rule="evenodd"></path></g></svg>